# xmcd
#
# Track frame offsets: 
#        150
#        15975
#        26787
#        43895
#        57607
#        68575
#        85277
#        101622
#        115032
#        126767
#        139517
#        151347
#        166852
#        179240
#        192350
#        206135
#        217347
#
# Disc length: 3069 seconds
#
# Revision: 7
# Processed by: cddbd v1.5.2PL0 Copyright (c) Steve Scherf et al.
# Submitted via: ExactAudioCopyFreeDBPlugin 1.0
#
DISCID=fa0bfb11
DTITLE=Marvin Gaye - The Marvin Gaye Collection [box set]
DYEAR=1990
DGENRE=Soul
TTITLE0=I've Grown Accustomed to Her Face
TTITLE1=Straighten Up and Fly Right
TTITLE2=Too Young
TTITLE3=Mona Lisa
TTITLE4=It's Only a Paper Moon
TTITLE5=What Kind of Fool Am I
TTITLE6=The Days of Wine and Roses
TTITLE7=Mack the Knife
TTITLE8=Hello Young Lovers
TTITLE9=Happy Days Are Here Again
TTITLE10=Why Did I Choose You (from the then-unreleased 1979 album "Vu
TTITLE10=lnerable")
TTITLE11=She Needs Me (from the then-unreleased 1979 album "Vulnerable
TTITLE11=")
TTITLE12=Funny (from the then-unreleased 1979 album "Vulnerable")
TTITLE13=This Will Make You Laugh (from the then-unreleased 1979 album
TTITLE13="Vulnerable")
TTITLE14=The Shadow of Your Smile (from the then-unreleased 1979 album
TTITLE14="Vulnerable")
TTITLE15=I Wish I Didn't Love You So (from the then-unreleased 1979 al
TTITLE15=bum "Vulnerable")
TTITLE16=I Won't Cry Anymore (from the then-unreleased 1979 album "Vul
TTITLE16=nerable")
EXTD=YEAR: 1990
EXTT0=
EXTT1=
EXTT2=
EXTT3=
EXTT4=
EXTT5=
EXTT6=
EXTT7=
EXTT8=
EXTT9=
EXTT10=
EXTT11=
EXTT12=
EXTT13=
EXTT14=
EXTT15=
EXTT16=
PLAYORDER=
